<?xml version="1.0" standalone="no"?><!DOCTYPE svg PUBLIC "-//W3C//DTD SVG 1.1//EN" "http://www.w3.org/Graphics/SVG/1.1/DTD/svg11.dtd"><svg t="1753684419312" class="icon" viewBox="0 0 1024 1024" version="1.1" xmlns="http://www.w3.org/2000/svg" p-id="10408" xmlns:xlink="http://www.w3.org/1999/xlink" width="200" height="200"><path d="M460.427752 966.995278a155.199242 155.199242 0 0 1-111.347456-49.383759L99.047516 651.449819c-58.259716-62.177696-55.648728-160.741215 5.784972-219.745927l377.558157-362.831228a42.729791 42.729791 0 0 1 29.538855-11.872942h412.420987a42.672792 42.672792 0 0 1 42.644791 42.628792v412.268987a42.592792 42.592792 0 0 1-12.541938 30.193852L573.4642 921.395501a155.053243 155.053243 0 0 1-110.272462 45.599777zM163.9102 493.216592c-27.899864 26.866869-29.129858 71.64565-2.610988 99.893512L411.280992 859.220805a70.244657 70.244657 0 0 0 50.579753 22.46589c18.685909 1.125995 37.678816-7.061966 51.450749-20.674899l368.343201-366.874209V142.257305H529.130416z m461.772745-151.939258a56.876722 56.876722 0 1 1 56.876722 56.855722 56.871722 56.871722 0 0 1-56.876722-56.855722z" p-id="10409" fill="#dbdbdb"></path></svg>