<?xml version="1.0" standalone="no"?><!DOCTYPE svg PUBLIC "-//W3C//DTD SVG 1.1//EN" "http://www.w3.org/Graphics/SVG/1.1/DTD/svg11.dtd"><svg t="1753684658386" class="icon" viewBox="0 0 1024 1024" version="1.1" xmlns="http://www.w3.org/2000/svg" p-id="14076" xmlns:xlink="http://www.w3.org/1999/xlink" width="200" height="200"><path d="M930.816 0H93.184C41.984 0 0 41.984 0 93.184v837.12C0 982.016 41.984 1024 93.184 1024h837.12c51.712 0 93.184-41.984 93.184-93.184V93.184C1024 41.984 982.016 0 930.816 0z m53.76 890.88c0 51.712-41.984 93.184-93.184 93.184H132.608c-51.712 0-93.184-41.984-93.184-93.184V226.816h945.152V890.88zM321.536 756.736l-43.008 9.216-76.8 116.224 14.336 14.336 14.336 14.336L347.136 834.56l9.216-42.496L452.608 696.32l-34.816-34.816-96.256 95.232z m418.816-436.736c4.096-4.096 10.752-4.096 14.848 0 4.096 4.096 4.096 10.24 0 14.336L586.752 501.76l26.112 26.112 168.448-167.424c4.096-4.096 10.752-4.096 14.848 0 4.096 4.096 4.096 10.24 0 14.336l-168.96 167.936 23.552 23.552c0.512-0.512 1.024-0.512 1.024-1.024l17.92-17.92 142.848-141.824c28.16-28.16 28.672-73.728 0.512-101.888l-0.512-0.512c-28.672-28.16-74.752-28.16-103.424 0l-141.824 140.8-18.944 18.432-1.024 1.024 23.552 23.552 169.472-166.912zM497.664 455.68c2.56-13.312 3.072-26.624 2.048-39.936-3.072-34.304-18.432-66.048-42.496-90.624-42.496-41.984-105.984-54.784-161.28-31.744l86.528 86.016c12.8 12.8 13.312 33.792 0 46.592l-36.352 35.84c-12.8 12.8-34.304 12.8-47.104 0L214.016 378.368c-19.968 53.76-6.656 114.176 34.304 154.112 22.016 22.016 50.688 36.352 81.408 40.96 14.336 2.048 28.672 2.56 42.496 0.512l312.832 310.784c33.792 33.792 88.576 33.792 122.368 0 33.792-33.28 33.792-87.04 0.512-120.832l-0.512-0.512L497.664 455.68z m283.136 402.944c-17.92 17.408-46.08 17.408-64 0-17.408-17.408-17.408-45.568 0-62.976 17.92-17.408 46.08-17.408 64 0 17.408 16.896 17.408 45.056 0 62.976 0-0.512 0-0.512 0 0z" p-id="14077" fill="#515151"></path></svg>